<svg width="33" height="32" viewBox="0 0 33 32" fill="none" xmlns="http://www.w3.org/2000/svg">
<g clip-path="url(#clip0_3424_8124)">
<path d="M16.5 32C25.3366 32 32.5 24.8366 32.5 16C32.5 7.16344 25.3366 0 16.5 0C7.66344 0 0.5 7.16344 0.5 16C0.5 24.8366 7.66344 32 16.5 32Z" fill="#0052FF"/>
<path fill-rule="evenodd" clip-rule="evenodd" d="M5.25 16C5.25 22.2132 10.2868 27.25 16.5 27.25C22.7132 27.25 27.75 22.2132 27.75 16C27.75 9.78678 22.7132 4.75 16.5 4.75C10.2868 4.75 5.25 9.78678 5.25 16ZM13.625 12.375C13.2108 12.375 12.875 12.7108 12.875 13.125V18.875C12.875 19.2892 13.2108 19.625 13.625 19.625H19.375C19.7892 19.625 20.125 19.2892 20.125 18.875V13.125C20.125 12.7108 19.7892 12.375 19.375 12.375H13.625Z" fill="white"/>
</g>
<defs>
<clipPath id="clip0_3424_8124">
<rect width="32" height="32" fill="white" transform="translate(0.5)"/>
</clipPath>
</defs>
</svg>
