<svg width="33" height="32" viewBox="0 0 33 32" fill="none" xmlns="http://www.w3.org/2000/svg">
<g clip-path="url(#clip0_3424_8078)">
<path d="M30.9062 1.25L18.4199 10.5237L20.7289 5.05235L30.9062 1.25Z" fill="#E2761B" stroke="#E2761B" stroke-width="0.3125" stroke-linecap="round" stroke-linejoin="round"/>
<path d="M2.08203 1.25L14.4679 10.6116L12.2718 5.05235L2.08203 1.25Z" fill="#E4761B" stroke="#E4761B" stroke-width="0.3125" stroke-linecap="round" stroke-linejoin="round"/>
<path d="M26.4134 22.7461L23.0879 27.841L30.2032 29.7986L32.2487 22.859L26.4134 22.7461Z" fill="#E4761B" stroke="#E4761B" stroke-width="0.3125" stroke-linecap="round" stroke-linejoin="round"/>
<path d="M0.763672 22.859L2.79661 29.7986L9.91191 27.841L6.58642 22.7461L0.763672 22.859Z" fill="#E4761B" stroke="#E4761B" stroke-width="0.3125" stroke-linecap="round" stroke-linejoin="round"/>
<path d="M9.51009 14.1386L7.52734 17.1378L14.5924 17.4515L14.3415 9.85938L9.51009 14.1386Z" fill="#E4761B" stroke="#E4761B" stroke-width="0.3125" stroke-linecap="round" stroke-linejoin="round"/>
<path d="M23.4772 14.1385L18.5831 9.77148L18.4199 17.4515L25.4725 17.1378L23.4772 14.1385Z" fill="#E4761B" stroke="#E4761B" stroke-width="0.3125" stroke-linecap="round" stroke-linejoin="round"/>
<path d="M9.91211 27.8419L14.1537 25.7713L10.4894 22.9102L9.91211 27.8419Z" fill="#E4761B" stroke="#E4761B" stroke-width="0.3125" stroke-linecap="round" stroke-linejoin="round"/>
<path d="M18.834 25.7713L23.0881 27.8419L22.4983 22.9102L18.834 25.7713Z" fill="#E4761B" stroke="#E4761B" stroke-width="0.3125" stroke-linecap="round" stroke-linejoin="round"/>
<path d="M23.0881 27.8421L18.834 25.7715L19.1728 28.5448L19.1352 29.7119L23.0881 27.8421Z" fill="#D7C1B3" stroke="#D7C1B3" stroke-width="0.3125" stroke-linecap="round" stroke-linejoin="round"/>
<path d="M9.91211 27.8421L13.8651 29.7119L13.84 28.5448L14.1537 25.7715L9.91211 27.8421Z" fill="#D7C1B3" stroke="#D7C1B3" stroke-width="0.3125" stroke-linecap="round" stroke-linejoin="round"/>
<path d="M13.9275 21.0781L10.3887 20.0365L12.8859 18.8945L13.9275 21.0781Z" fill="#233447" stroke="#233447" stroke-width="0.3125" stroke-linecap="round" stroke-linejoin="round"/>
<path d="M19.0605 21.0781L20.1021 18.8945L22.6119 20.0365L19.0605 21.0781Z" fill="#233447" stroke="#233447" stroke-width="0.3125" stroke-linecap="round" stroke-linejoin="round"/>
<path d="M9.91143 27.841L10.5138 22.7461L6.58594 22.859L9.91143 27.841Z" fill="#CD6116" stroke="#CD6116" stroke-width="0.3125" stroke-linecap="round" stroke-linejoin="round"/>
<path d="M22.4863 22.7461L23.0887 27.841L26.4142 22.859L22.4863 22.7461Z" fill="#CD6116" stroke="#CD6116" stroke-width="0.3125" stroke-linecap="round" stroke-linejoin="round"/>
<path d="M25.4725 17.1367L18.4199 17.4504L19.0725 21.0771L20.114 18.8936L22.6238 20.0355L25.4725 17.1367Z" fill="#CD6116" stroke="#CD6116" stroke-width="0.3125" stroke-linecap="round" stroke-linejoin="round"/>
<path d="M10.3885 20.0355L12.8983 18.8936L13.9273 21.0771L14.5924 17.4504L7.52734 17.1367L10.3885 20.0355Z" fill="#CD6116" stroke="#CD6116" stroke-width="0.3125" stroke-linecap="round" stroke-linejoin="round"/>
<path d="M7.52734 17.1367L10.4889 22.9093L10.3885 20.0355L7.52734 17.1367Z" fill="#E4751F" stroke="#E4751F" stroke-width="0.3125" stroke-linecap="round" stroke-linejoin="round"/>
<path d="M22.6235 20.0355L22.498 22.9093L25.4722 17.1367L22.6235 20.0355Z" fill="#E4751F" stroke="#E4751F" stroke-width="0.3125" stroke-linecap="round" stroke-linejoin="round"/>
<path d="M14.5928 17.4512L13.9277 21.0778L14.756 25.3571L14.9442 19.7225L14.5928 17.4512Z" fill="#E4751F" stroke="#E4751F" stroke-width="0.3125" stroke-linecap="round" stroke-linejoin="round"/>
<path d="M18.4209 17.4512L18.082 19.71L18.2326 25.3571L19.0734 21.0778L18.4209 17.4512Z" fill="#E4751F" stroke="#E4751F" stroke-width="0.3125" stroke-linecap="round" stroke-linejoin="round"/>
<path d="M19.0732 21.0767L18.2324 25.3559L18.8348 25.7701L22.4991 22.9089L22.6246 20.0352L19.0732 21.0767Z" fill="#F6851B" stroke="#F6851B" stroke-width="0.3125" stroke-linecap="round" stroke-linejoin="round"/>
<path d="M10.3887 20.0352L10.4891 22.9089L14.1534 25.7701L14.7557 25.3559L13.9275 21.0767L10.3887 20.0352Z" fill="#F6851B" stroke="#F6851B" stroke-width="0.3125" stroke-linecap="round" stroke-linejoin="round"/>
<path d="M19.1356 29.7116L19.1733 28.5445L18.8596 28.2685H14.1286L13.84 28.5445L13.8651 29.7116L9.91211 27.8418L11.2925 28.9712L14.0909 30.9163H18.8972L21.7082 28.9712L23.0886 27.8418L19.1356 29.7116Z" fill="#C0AD9E" stroke="#C0AD9E" stroke-width="0.3125" stroke-linecap="round" stroke-linejoin="round"/>
<path d="M18.8344 25.7715L18.232 25.3574H14.7559L14.1536 25.7715L13.8398 28.5449L14.1285 28.2688H18.8595L19.1732 28.5449L18.8344 25.7715Z" fill="#161616" stroke="#161616" stroke-width="0.3125" stroke-linecap="round" stroke-linejoin="round"/>
<path d="M31.4332 11.1261L32.4999 6.00608L30.9061 1.25L18.834 10.21L23.4771 14.1378L30.0403 16.0578L31.4959 14.3637L30.8685 13.912L31.8724 12.9959L31.0944 12.3935L32.0983 11.628L31.4332 11.1261Z" fill="#763D16" stroke="#763D16" stroke-width="0.3125" stroke-linecap="round" stroke-linejoin="round"/>
<path d="M0.5 6.00608L1.56667 11.1261L0.88902 11.628L1.89294 12.3935L1.12745 12.9959L2.13137 13.912L1.50392 14.3637L2.94706 16.0578L9.5102 14.1378L14.1533 10.21L2.08118 1.25L0.5 6.00608Z" fill="#763D16" stroke="#763D16" stroke-width="0.3125" stroke-linecap="round" stroke-linejoin="round"/>
<path d="M30.04 16.0587L23.4769 14.1387L25.4722 17.1379L22.498 22.9104L26.4133 22.8602H32.2486L30.04 16.0587Z" fill="#F6851B" stroke="#F6851B" stroke-width="0.3125" stroke-linecap="round" stroke-linejoin="round"/>
<path d="M9.51034 14.1387L2.9472 16.0587L0.763672 22.8602H6.58642L10.4892 22.9104L7.52759 17.1379L9.51034 14.1387Z" fill="#F6851B" stroke="#F6851B" stroke-width="0.3125" stroke-linecap="round" stroke-linejoin="round"/>
<path d="M18.4205 17.4512L18.8346 10.2104L20.7421 5.05273H12.2715L14.1538 10.2104L14.5931 17.4512L14.7436 19.7351L14.7562 25.357H18.2323L18.2574 19.7351L18.4205 17.4512Z" fill="#F6851B" stroke="#F6851B" stroke-width="0.3125" stroke-linecap="round" stroke-linejoin="round"/>
</g>
<defs>
<clipPath id="clip0_3424_8078">
<rect width="32" height="32" fill="white" transform="translate(0.5)"/>
</clipPath>
</defs>
</svg>
