<svg width="33" height="32" viewBox="0 0 33 32" fill="none" xmlns="http://www.w3.org/2000/svg">
<g clip-path="url(#clip0_3424_8117)">
<path d="M16.5 32C25.3366 32 32.5 24.8366 32.5 16C32.5 7.16344 25.3366 0 16.5 0C7.66344 0 0.5 7.16344 0.5 16C0.5 24.8366 7.66344 32 16.5 32Z" fill="url(#paint0_radial_3424_8117)"/>
<path d="M10.5469 12.3578C13.7656 9.21406 18.9906 9.21406 22.2094 12.3578L22.5969 12.7391C22.7594 12.8953 22.7594 13.1516 22.5969 13.3078L21.2719 14.6016C21.1906 14.6828 21.0594 14.6828 20.9781 14.6016L20.4469 14.0828C18.1969 11.8891 14.5594 11.8891 12.3094 14.0828L11.7406 14.6391C11.6594 14.7203 11.5281 14.7203 11.4469 14.6391L10.1219 13.3453C9.95938 13.1891 9.95938 12.9328 10.1219 12.7766L10.5469 12.3578ZM24.9531 15.0328L26.1344 16.1828C26.2969 16.3391 26.2969 16.5953 26.1344 16.7516L20.8156 21.9453C20.6531 22.1016 20.3906 22.1016 20.2344 21.9453L16.4594 18.2578C16.4219 18.2203 16.3531 18.2203 16.3156 18.2578L12.5406 21.9453C12.3781 22.1016 12.1156 22.1016 11.9594 21.9453L6.62187 16.7516C6.45938 16.5953 6.45938 16.3391 6.62187 16.1828L7.80312 15.0328C7.96562 14.8766 8.22813 14.8766 8.38438 15.0328L12.1594 18.7203C12.1969 18.7578 12.2656 18.7578 12.3031 18.7203L16.0781 15.0328C16.2406 14.8766 16.5031 14.8766 16.6594 15.0328L20.4344 18.7203C20.4719 18.7578 20.5406 18.7578 20.5781 18.7203L24.3531 15.0328C24.5281 14.8766 24.7906 14.8766 24.9531 15.0328Z" fill="white"/>
</g>
<defs>
<radialGradient id="paint0_radial_3424_8117" cx="0" cy="0" r="1" gradientUnits="userSpaceOnUse" gradientTransform="translate(0.500099 16.0005) scale(32)">
<stop stop-color="#5D9DF6"/>
<stop offset="1" stop-color="#006FFF"/>
</radialGradient>
<clipPath id="clip0_3424_8117">
<rect width="32" height="32" fill="white" transform="translate(0.5)"/>
</clipPath>
</defs>
</svg>
